# xmcd CD database file
#
# Track frame offsets:
#	150
#	15297
#	26587
#	43947
#	53112
#	64969
#	75658
#	85887
#	97566
#	117526
#	134269
#	147733
#	167809
#	179777
#	192051
#	221623
#	235350
#	246897
#	257479
#	271588
#	280972
#	291459
#	302216
#	326139
#	342211
#
# Disc length: 4747 seconds
#
# Revision: 5
# Processed by: cddbd v1.5.2PL0 Copyright (c) Steve Scherf et al.
# Submitted via: CDex 1.70beta2
#
DISCID=79128919
DTITLE=25 Blues Masters - Volume 3
DYEAR=2001
DGENRE=Blues
TTITLE0=Billie Holiday - Georgia On My Mind
TTITLE1=Big Joe Williams - Bye Bye Baby Blues
TTITLE2=Howlin' Wolf - Blow Wind Blow
TTITLE3=Memphis Slim - Steppin' Out
TTITLE4=Canned Heat - Straight Ahead
TTITLE5=Ray Charles - Hey Now
TTITLE6=John Lee Hooker - Dimples
TTITLE7=Lightnin' Hopkins - Lightning's Boogie
TTITLE8=Howlin' Wolf - Howlin' For My Darling
TTITLE9=Mississippi John Hurt - Coffee Blues
TTITLE10=Leadbelly - Frankie and Albert (Part 1)
TTITLE11=Pinetop Perkins - Just Keep On Drinking
TTITLE12=Jimmy Reed - Hush, Hush
TTITLE13=Ligntning Slim - Rooster Blues
TTITLE14=Big Joe Turner - Morning, Noon and Night
TTITLE15=Muddy Waters - Hoochie Coochie Man
TTITLE16=Big Joe Williams - Ride In My New Car
TTITLE17=Billie Holiday - Lover Man
TTITLE18=Canned Heat - Louise
TTITLE19=Ray Charles - All To Myself
TTITLE20=John Lee Hooker - Old Time Shimmy
TTITLE21=Lightnin' Hopkins - Nothing But The Blues
TTITLE22=Howlin' Wolf - Rocking The Blues
TTITLE23=Mississippi John Hurt - Hot Time In The Old Town Tonight
TTITLE24=Leadbelly - Dekalb Blues
EXTD=YEAR: 2001
EXTT0=
EXTT1=
EXTT2=
EXTT3=
EXTT4=
EXTT5=
EXTT6=
EXTT7=
EXTT8=
EXTT9=
EXTT10=
EXTT11=
EXTT12=
EXTT13=
EXTT14=
EXTT15=
EXTT16=
EXTT17=
EXTT18=
EXTT19=
EXTT20=
EXTT21=
EXTT22=
EXTT23=
EXTT24=
PLAYORDER=
